<svg width="197" height="31" viewBox="0 0 197 31" fill="none" xmlns="http://www.w3.org/2000/svg">
<path d="M96 17.3496C96 14.3848 96.6621 12.0234 97.9863 10.2656C99.3223 8.50781 101.145 7.62891 103.453 7.62891C105.305 7.62891 106.834 8.32031 108.041 9.70312V0H113.139V27H108.551L108.305 24.9785C107.039 26.5605 105.41 27.3516 103.418 27.3516C101.18 27.3516 99.3809 26.4727 98.0215 24.7148C96.6738 22.9453 96 20.4902 96 17.3496ZM101.08 17.7188C101.08 19.5 101.391 20.8652 102.012 21.8145C102.633 22.7637 103.535 23.2383 104.719 23.2383C106.289 23.2383 107.396 22.5762 108.041 21.252V13.7461C107.408 12.4219 106.312 11.7598 104.754 11.7598C102.305 11.7598 101.08 13.7461 101.08 17.7188Z" fill="#FBB505"/>
<path d="M125.83 27.3516C123.041 27.3516 120.768 26.4961 119.01 24.7852C117.264 23.0742 116.391 20.7949 116.391 17.9473V17.4551C116.391 15.5449 116.76 13.8398 117.498 12.3398C118.236 10.8281 119.279 9.66797 120.627 8.85938C121.986 8.03906 123.533 7.62891 125.268 7.62891C127.869 7.62891 129.914 8.44922 131.402 10.0898C132.902 11.7305 133.652 14.0566 133.652 17.0684V19.1426H121.541C121.705 20.3848 122.197 21.3809 123.018 22.1309C123.85 22.8809 124.898 23.2559 126.164 23.2559C128.121 23.2559 129.65 22.5469 130.752 21.1289L133.248 23.9238C132.486 25.002 131.455 25.8457 130.154 26.4551C128.854 27.0527 127.412 27.3516 125.83 27.3516ZM125.25 11.7422C124.242 11.7422 123.422 12.082 122.789 12.7617C122.168 13.4414 121.77 14.4141 121.594 15.6797H128.66V15.2754C128.637 14.1504 128.332 13.2832 127.746 12.6738C127.16 12.0527 126.328 11.7422 125.25 11.7422Z" fill="#FBB505"/>
<path d="M143.426 20.7949L146.959 7.98047H152.268L145.852 27H141L134.584 7.98047H139.893L143.426 20.7949Z" fill="#FBB505"/>
<path d="M173.854 16.084L163.641 12.5156V7.62891L178.951 14.0449V18.1758L163.641 24.6094V19.7051L173.854 16.084Z" fill="black"/>
<path d="M196.16 30.9727H180.146V27H196.16V30.9727Z" fill="black"/>
<path d="M11.9727 27C11.7383 26.543 11.5684 25.9746 11.4629 25.2949C10.2324 26.666 8.63281 27.3516 6.66406 27.3516C4.80078 27.3516 3.25391 26.8125 2.02344 25.7344C0.804688 24.6562 0.195312 23.2969 0.195312 21.6562C0.195312 19.6406 0.939453 18.0938 2.42773 17.0156C3.92773 15.9375 6.08984 15.3926 8.91406 15.3809H11.252V14.291C11.252 13.4121 11.0234 12.709 10.5664 12.1816C10.1211 11.6543 9.41211 11.3906 8.43945 11.3906C7.58398 11.3906 6.91016 11.5957 6.41797 12.0059C5.9375 12.416 5.69727 12.9785 5.69727 13.6934H0.617188C0.617188 12.5918 0.957031 11.5723 1.63672 10.6348C2.31641 9.69727 3.27734 8.96484 4.51953 8.4375C5.76172 7.89844 7.15625 7.62891 8.70312 7.62891C11.0469 7.62891 12.9043 8.2207 14.2754 9.4043C15.6582 10.5762 16.3496 12.2285 16.3496 14.3613V22.6055C16.3613 24.4102 16.6133 25.7754 17.1055 26.7012V27H11.9727ZM7.77148 23.4668C8.52148 23.4668 9.21289 23.3027 9.8457 22.9746C10.4785 22.6348 10.9473 22.1836 11.252 21.6211V18.3516H9.35352C6.81055 18.3516 5.45703 19.2305 5.29297 20.9883L5.27539 21.2871C5.27539 21.9199 5.49805 22.4414 5.94336 22.8516C6.38867 23.2617 6.99805 23.4668 7.77148 23.4668Z" fill="black"/>
<path d="M25.6133 27H20.5156V13.5V0H25.6133V27Z" fill="black"/>
<path d="M38.5684 27.3516C35.7793 27.3516 33.5059 26.4961 31.748 24.7852C30.002 23.0742 29.1289 20.7949 29.1289 17.9473V17.4551C29.1289 15.5449 29.498 13.8398 30.2363 12.3398C30.9746 10.8281 32.0176 9.66797 33.3652 8.85938C34.7246 8.03906 36.2715 7.62891 38.0059 7.62891C40.6074 7.62891 42.6523 8.44922 44.1406 10.0898C45.6406 11.7305 46.3906 14.0566 46.3906 17.0684V19.1426H34.2793C34.4434 20.3848 34.9355 21.3809 35.7559 22.1309C36.5879 22.8809 37.6367 23.2559 38.9023 23.2559C40.8594 23.2559 42.3887 22.5469 43.4902 21.1289L45.9863 23.9238C45.2246 25.002 44.1934 25.8457 42.8926 26.4551C41.5918 27.0527 40.1504 27.3516 38.5684 27.3516ZM37.9883 11.7422C36.9805 11.7422 36.1602 12.082 35.5273 12.7617C34.9062 13.4414 34.5078 14.4141 34.332 15.6797H41.3984V15.2754C41.375 14.1504 41.0703 13.2832 40.4844 12.6738C39.8984 12.0527 39.0664 11.7422 37.9883 11.7422Z" fill="black"/>
<path d="M56.5332 13.6582L59.7324 7.98047H65.1641L59.75 17.2969L65.3926 27H59.9434L56.5508 21.0234L53.1758 27H47.709L53.3516 17.2969L47.9551 7.98047H53.4043L56.5332 13.6582Z" fill="black"/>
<path d="M76.0098 27.3516C73.2207 27.3516 70.9473 26.4961 69.1895 24.7852C67.4434 23.0742 66.5703 20.7949 66.5703 17.9473V17.4551C66.5703 15.5449 66.9395 13.8398 67.6777 12.3398C68.416 10.8281 69.459 9.66797 70.8066 8.85938C72.166 8.03906 73.7129 7.62891 75.4473 7.62891C78.0488 7.62891 80.0938 8.44922 81.582 10.0898C83.082 11.7305 83.832 14.0566 83.832 17.0684V19.1426H71.7207C71.8848 20.3848 72.377 21.3809 73.1973 22.1309C74.0293 22.8809 75.0781 23.2559 76.3438 23.2559C78.3008 23.2559 79.8301 22.5469 80.9316 21.1289L83.4277 23.9238C82.666 25.002 81.6348 25.8457 80.334 26.4551C79.0332 27.0527 77.5918 27.3516 76.0098 27.3516ZM75.4297 11.7422C74.4219 11.7422 73.6016 12.082 72.9688 12.7617C72.3477 13.4414 71.9492 14.4141 71.7734 15.6797H78.8398V15.2754C78.8164 14.1504 78.5117 13.2832 77.9258 12.6738C77.3398 12.0527 76.5078 11.7422 75.4297 11.7422Z" fill="black"/>
<path d="M92.0938 27H86.9961V17.4902V7.98047H92.0938V27ZM86.6973 3.05859C86.6973 2.29688 86.9492 1.66992 87.4531 1.17773C87.9688 0.685547 88.666 0.439453 89.5449 0.439453C90.4121 0.439453 91.1035 0.685547 91.6191 1.17773C92.1348 1.66992 92.3926 2.29688 92.3926 3.05859C92.3926 3.83203 92.1289 4.46484 91.6016 4.95703C91.0859 5.44922 90.4004 5.69531 89.5449 5.69531C88.6895 5.69531 87.998 5.44922 87.4707 4.95703C86.9551 4.46484 86.6973 3.83203 86.6973 3.05859Z" fill="black"/>
</svg>
